<svg width="500" height="501" viewBox="0 0 500 501" fill="none" xmlns="http://www.w3.org/2000/svg">
<path d="M85.8687 500.903H0V271.918H85.8687L85.8687 500.903Z" fill="white"/>
<path d="M499.984 271.914C489.692 393.173 393.014 489.798 271.731 500.004L271.796 413.656C345.588 404.096 404.039 345.666 413.635 271.886L499.984 271.914Z" fill="white"/>
<path d="M250.449 0C381.598 0 489.195 100.808 500 229.163L413.652 229.135C403.197 148.31 334.116 85.8689 250.445 85.8686C166.816 85.8686 97.7586 148.247 87.2511 229.013L0.910813 228.984C11.8009 100.714 119.362 0.000496314 250.449 0Z" fill="white"/>
<path d="M87.2328 271.764C96.7779 345.586 155.234 404.063 229.043 413.647L228.978 499.988C107.724 489.693 11.0988 393.015 0.892578 271.735L87.2328 271.764Z" fill="white"/>
</svg>
