<svg width="800" height="121" viewBox="0 0 800 121" fill="none" xmlns="http://www.w3.org/2000/svg">
<path d="M784.91 95.509V58.4946C784.91 54.1026 783.492 50.4884 780.657 47.6519C777.913 44.8154 774.346 43.3972 769.956 43.3972C767.03 43.3972 764.423 44.0377 762.137 45.3187C759.85 46.5997 758.067 48.3839 756.786 50.6714C755.506 52.9589 754.866 55.5666 754.866 58.4946L748.967 55.2006C748.967 50.1682 750.064 45.7304 752.259 41.8874C754.454 37.953 757.472 34.8877 761.314 32.6917C765.246 30.4042 769.636 29.2605 774.484 29.2605C779.422 29.2605 783.812 30.5415 787.654 33.1035C791.495 35.574 794.513 38.8222 796.708 42.8482C798.903 46.7827 800.001 50.9002 800.001 55.2006V95.509H784.91ZM739.775 95.509V30.1311H754.866V95.509H739.775Z" fill="white"/>
<path d="M599.248 95.5092V10.1892H614.304V95.5092H599.248Z" fill="white"/>
<path d="M639.398 95.5091V30.2644H654.454V95.5091H639.398Z" fill="white"/>
<path d="M639.398 25.2457V10.1892H654.454V25.2457H639.398Z" fill="white"/>
<path d="M584.191 30.2644L629.36 30.2644L629.36 45.3209L584.191 45.3209L584.191 30.2644Z" fill="white"/>
<path d="M246.926 95.5091V29.6396H262.167V95.5091H246.926ZM262.167 59.0936L256.902 56.4662C256.902 48.0772 258.75 41.3014 262.444 36.1389C266.232 30.8842 271.912 28.2568 279.487 28.2568C282.812 28.2568 285.814 28.8561 288.493 30.0545C291.172 31.2529 293.666 33.1889 295.975 35.8623L285.999 46.0951C284.798 44.8045 283.459 43.8826 281.981 43.3295C280.503 42.7764 278.794 42.4998 276.854 42.4998C272.605 42.4998 269.095 43.8365 266.324 46.51C263.553 49.1834 262.167 53.378 262.167 59.0936Z" fill="white"/>
<path d="M528.984 95.5091V29.6396H544.225V95.5091H528.984ZM544.225 59.0936L538.96 56.4662C538.96 48.0772 540.808 41.3014 544.503 36.1389C548.29 30.8842 553.971 28.2568 561.545 28.2568C564.87 28.2568 567.872 28.8561 570.551 30.0545C573.23 31.2529 575.724 33.1889 578.033 35.8623L568.057 46.0951C566.856 44.8045 565.517 43.8826 564.039 43.3295C562.561 42.7764 560.852 42.4998 558.912 42.4998C554.663 42.4998 551.153 43.8365 548.382 46.51C545.611 49.1834 544.225 53.378 544.225 59.0936Z" fill="white"/>
<path d="M185.632 110.566H170.64L170.705 65.3962H185.697L185.632 110.566Z" fill="white"/>
<path d="M236.382 65.4067C235.161 81.4698 222.336 94.2891 206.271 95.5024L206.278 80.3247C213.998 79.2262 220.105 73.1221 221.207 65.4028L236.382 65.4067ZM186.342 65.3931C187.44 73.1154 193.547 79.2239 201.268 80.3247L201.261 95.4976C199.51 95.3639 197.797 95.0959 196.133 94.6978C195.79 94.6156 195.449 94.5279 195.11 94.4351C194.403 94.2413 193.705 94.0248 193.018 93.7856C192.698 93.6743 192.38 93.558 192.065 93.437C180.527 89.0108 172.135 78.2364 171.165 65.3892L186.342 65.3931ZM203.773 30.189C220.995 30.1891 235.108 43.501 236.383 60.397L221.208 60.3931C219.994 51.8515 212.652 45.2837 203.775 45.2837C194.902 45.284 187.561 51.8466 186.343 60.3833L171.165 60.3794C172.161 47.2704 180.887 36.323 192.794 32.0796C193.385 31.8691 193.984 31.6745 194.59 31.4976C195.026 31.3704 195.466 31.2524 195.909 31.1431C196.236 31.0622 196.566 30.9854 196.897 30.9146C198.352 30.6031 199.844 30.3886 201.364 30.2778C201.861 30.2416 202.362 30.2154 202.866 30.2017C203.167 30.1934 203.47 30.189 203.773 30.189Z" fill="white"/>
<path d="M185.632 60.3773H170.64L170.705 30.2644H185.697L185.632 60.3773Z" fill="white"/>
<path d="M392.407 110.566H377.416L377.48 65.3962H392.472L392.407 110.566Z" fill="white"/>
<path d="M392.407 60.3773H377.416L377.48 30.2644H392.472L392.407 60.3773Z" fill="white"/>
<path d="M442.67 65.4067C442.27 70.6674 440.627 75.5809 438.032 79.8521C437.895 80.0766 437.756 80.3 437.615 80.521C436.622 82.069 435.503 83.5282 434.271 84.8833C433.919 85.2704 433.558 85.6492 433.188 86.019C430.969 88.2384 428.431 90.1405 425.651 91.6509C425.188 91.9025 424.717 92.143 424.241 92.3726C424.002 92.4873 423.762 92.5994 423.521 92.7085C420.135 94.2394 416.442 95.2082 412.559 95.5015L412.566 80.3247C420.287 79.2265 426.393 73.1223 427.495 65.4028L442.67 65.4067ZM392.631 65.3931C393.729 73.1152 399.835 79.2237 407.556 80.3247L407.549 95.5005C401.181 95.0165 395.322 92.7106 390.495 89.1001C390.285 88.9434 390.077 88.7842 389.872 88.6226C388.224 87.328 386.704 85.8786 385.333 84.2964C384.819 83.7028 384.326 83.0903 383.855 82.4604C383.541 82.0407 383.237 81.6132 382.943 81.1782C381.914 79.6559 381.011 78.0421 380.247 76.3521C380.138 76.1109 380.032 75.8678 379.928 75.6235C379.515 74.6454 379.147 73.6426 378.829 72.6187C378.11 70.3084 377.641 67.8877 377.453 65.3892L392.631 65.3931ZM410.062 30.189C410.626 30.189 411.187 30.2037 411.745 30.2319C412.302 30.2602 412.856 30.3021 413.406 30.3579C414.505 30.4695 415.588 30.6352 416.653 30.853C417.451 31.0164 418.239 31.2088 419.015 31.4292C422.637 32.4577 426.002 34.0952 428.995 36.2231C429.636 36.679 430.26 37.157 430.866 37.6567C437.533 43.1593 441.98 51.2535 442.67 60.397L427.497 60.3931C426.283 51.8515 418.941 45.2837 410.064 45.2837C401.19 45.2838 393.851 51.8465 392.632 60.3833L377.456 60.3794C377.547 59.1799 377.702 57.9983 377.919 56.8384C378.153 55.5885 378.457 54.3629 378.829 53.1675C378.908 52.9117 378.991 52.6569 379.077 52.4038C379.162 52.1509 379.251 51.899 379.342 51.6489C379.617 50.8975 379.919 50.1585 380.247 49.4341C380.356 49.1926 380.469 48.9527 380.583 48.7144C381.617 46.5699 382.877 44.5549 384.333 42.7017C384.657 42.2899 384.991 41.8862 385.333 41.4907C385.676 41.0953 386.028 40.7081 386.389 40.3296C386.75 39.9511 387.12 39.5811 387.499 39.2202C393.367 33.6249 401.313 30.1891 410.062 30.189Z" fill="white"/>
<path d="M332.091 45.4126C323.549 46.6257 316.979 53.9679 316.979 62.8452C316.979 71.7194 323.544 79.0593 332.082 80.2769L332.078 95.4526C317.681 94.359 305.888 83.9462 302.722 70.231C302.6 69.7037 302.492 69.171 302.396 68.6343C302.3 68.0978 302.217 67.5564 302.148 67.0112C302.009 65.9198 301.923 64.8112 301.895 63.689C301.888 63.4088 301.885 63.1271 301.885 62.8452C301.886 45.6226 315.199 31.5101 332.095 30.2358L332.091 45.4126ZM367.292 62.8452C367.292 76.1092 359.396 87.5292 348.048 92.6606C346.116 93.5342 344.084 94.2254 341.974 94.7124C340.583 95.0334 339.159 95.2645 337.707 95.4019C337.501 95.4213 337.294 95.4369 337.087 95.4526L337.091 80.2778C345.632 79.0628 352.199 71.7214 352.199 62.8452C352.198 53.9727 345.637 46.6336 337.101 45.4145L337.106 30.2368C337.382 30.2579 337.658 30.2822 337.932 30.3101C341.505 30.6729 344.908 31.6107 348.047 33.0298C348.53 33.2481 349.007 33.4785 349.477 33.7192C360.054 39.1366 367.292 50.1456 367.292 62.8452Z" fill="white"/>
<path d="M483.036 45.4126C474.494 46.6261 467.926 53.9682 467.925 62.8452C467.925 71.7191 474.489 79.0589 483.026 80.2769L483.022 95.4536C481.083 95.306 479.192 94.9907 477.363 94.52C477.102 94.4529 476.842 94.3825 476.583 94.3091C475.807 94.0887 475.043 93.8401 474.292 93.5649C473.54 93.2899 472.802 92.9881 472.078 92.6606C471.836 92.5515 471.596 92.4395 471.358 92.3247C470.987 92.1461 470.621 91.9591 470.258 91.7671C468.755 90.9715 467.321 90.0638 465.968 89.0522C465.549 88.7384 465.137 88.4147 464.733 88.0815C463.32 86.9152 462.006 85.632 460.807 84.2476C460.636 84.05 460.467 83.8506 460.3 83.6489C456.801 79.4088 454.349 74.2717 453.342 68.6343C453.151 67.5608 453.011 66.4688 452.927 65.3618C452.886 64.8187 452.859 64.2714 452.844 63.7212C452.837 63.4303 452.832 63.138 452.832 62.8452C452.832 62.5633 452.835 62.2817 452.842 62.0015C453.148 49.9396 459.985 39.5006 469.948 34.0884C470.179 33.9626 470.413 33.8396 470.648 33.7192C471.118 33.4785 471.595 33.2481 472.078 33.0298C472.92 32.6487 473.783 32.3045 474.663 31.9946C475.294 31.7721 475.934 31.5656 476.583 31.3813C476.841 31.3079 477.102 31.2376 477.363 31.1704C478.93 30.7671 480.544 30.4775 482.193 30.3101C482.474 30.2815 482.756 30.2574 483.04 30.2358L483.036 45.4126ZM518.241 62.8452C518.241 63.6917 518.208 64.5315 518.145 65.3618C518.061 66.4688 517.922 67.5609 517.73 68.6343C517.682 68.9026 517.63 69.1701 517.576 69.436C517.249 71.0327 516.807 72.5877 516.256 74.0903C516.073 74.5909 515.877 75.0859 515.67 75.5747C515.567 75.8193 515.46 76.0627 515.351 76.3042C514.805 77.5115 514.188 78.6803 513.505 79.8042C513.369 80.0285 513.23 80.2514 513.088 80.4722C512.663 81.1356 512.214 81.7831 511.744 82.4126C511.43 82.8322 511.106 83.2443 510.773 83.6479C510.606 83.8499 510.436 84.0497 510.265 84.2476C509.922 84.6432 509.57 85.031 509.209 85.4097C503.79 91.0936 496.345 94.8282 488.032 95.4556L488.036 80.2788C496.577 79.0642 503.145 71.7218 503.145 62.8452C503.145 53.9724 496.582 46.6332 488.045 45.4145L488.049 30.2358L488.052 30.2368C488.329 30.2579 488.605 30.2821 488.88 30.3101C489.98 30.4217 491.063 30.5874 492.127 30.8052C495.055 31.4042 497.84 32.3949 500.425 33.7192C501.365 34.2007 502.279 34.7264 503.164 35.2935C506.039 37.1367 508.606 39.418 510.772 42.0425C511.105 42.4463 511.43 42.8581 511.744 43.2778C513.156 45.1664 514.369 47.2134 515.351 49.3862C515.569 49.8693 515.777 50.3588 515.972 50.854C517.436 54.5668 518.241 58.6123 518.241 62.8452Z" fill="white"/>
<path d="M694.355 45.4138C685.815 46.6284 679.247 53.9693 679.247 62.8455C679.247 71.7185 685.81 79.0571 694.346 80.2761L694.342 95.4529C691.296 95.2211 688.367 94.5741 685.611 93.5652C683.859 92.9233 682.176 92.1362 680.578 91.2175C680.122 90.955 679.672 90.6817 679.229 90.3982C678.694 90.0548 678.171 89.6932 677.657 89.3201C677.322 89.0769 676.99 88.8304 676.665 88.5749C676.047 88.0896 675.448 87.5821 674.867 87.0544C673.899 86.1746 672.985 85.2368 672.128 84.2478C671.443 83.4568 670.794 82.6327 670.187 81.7781C670.035 81.5643 669.885 81.3481 669.738 81.1306C667.975 78.5209 666.579 75.6431 665.623 72.571C665.543 72.315 665.467 72.0573 665.394 71.7986C664.806 69.7294 664.417 67.5764 664.248 65.3621C664.227 65.0851 664.209 64.8069 664.195 64.5281C664.167 63.9708 664.152 63.4097 664.152 62.8455C664.152 62.2812 664.167 61.72 664.195 61.1628C664.209 60.884 664.227 60.6058 664.248 60.3289C664.438 57.8375 664.906 55.424 665.623 53.1199C665.942 52.0958 666.309 51.0931 666.723 50.115C668.274 46.4469 670.476 43.1207 673.184 40.281C673.725 39.7133 674.287 39.1651 674.867 38.6374C676.222 37.4057 677.681 36.2862 679.229 35.2937C679.672 35.0101 680.122 34.7369 680.578 34.4744C681.719 33.8181 682.904 33.2288 684.127 32.7117C685.179 32.2666 686.26 31.8764 687.365 31.5417C689.599 30.8654 691.933 30.4202 694.341 30.2371C694.347 30.2366 694.353 30.2365 694.359 30.2361L694.355 45.4138ZM729.561 62.8455C729.561 68.2076 728.27 73.2684 725.982 77.7341C725.742 78.2043 725.49 78.6681 725.228 79.1248C724.44 80.4943 723.556 81.8014 722.585 83.0369C722.423 83.2426 722.259 83.4465 722.093 83.6482C721.926 83.8501 721.757 84.05 721.586 84.2478C721.243 84.6435 720.891 85.0312 720.53 85.4099C715.111 91.0942 707.665 94.8276 699.352 95.4548L699.355 80.2781C707.898 79.0645 714.467 71.7228 714.467 62.8455C714.467 53.9717 707.903 46.6324 699.365 45.4148L699.369 30.2361C699.37 30.2362 699.372 30.237 699.373 30.2371C700.48 30.3213 701.572 30.4604 702.646 30.6521C703.988 30.8919 705.302 31.2139 706.582 31.6121C707.094 31.7713 707.601 31.9424 708.102 32.1257C720.624 36.7109 729.56 48.7347 729.561 62.8455Z" fill="white"/>
<path d="M20.7007 120.755H0V65.5525H20.7007L20.7007 120.755Z" fill="white"/>
<path d="M120.533 65.5515C118.052 94.7838 94.7454 118.078 65.5074 120.538L65.5231 99.7217C83.3122 97.4171 97.4034 83.3312 99.7168 65.5446L120.533 65.5515Z" fill="white"/>
<path d="M60.3768 0C91.9933 0 117.932 24.3021 120.537 55.2453L99.7207 55.2384C97.2004 35.7536 80.5467 20.7008 60.3758 20.7007C40.215 20.7007 23.5671 35.7384 21.034 55.209L0.219573 55.2021C2.84488 24.2796 28.7751 0.000119648 60.3768 0Z" fill="white"/>
<path d="M21.0302 65.5152C23.3313 83.3117 37.4235 97.4091 55.217 99.7196L55.2013 120.534C25.9701 118.052 2.67628 94.7457 0.21582 65.5083L21.0302 65.5152Z" fill="white"/>
</svg>
