<svg width="800" height="121" viewBox="0 0 800 121" fill="none" xmlns="http://www.w3.org/2000/svg">
<path d="M784.91 95.5091V58.4947C784.91 54.1028 783.492 50.4885 780.657 47.652C777.913 44.8156 774.346 43.3973 769.956 43.3973C767.03 43.3973 764.423 44.0378 762.137 45.3188C759.85 46.5998 758.067 48.384 756.786 50.6715C755.506 52.959 754.866 55.5668 754.866 58.4947L748.967 55.2008C748.967 50.1683 750.064 45.7306 752.259 41.8876C754.454 37.9531 757.472 34.8878 761.314 32.6919C765.246 30.4044 769.636 29.2606 774.484 29.2606C779.422 29.2606 783.812 30.5416 787.654 33.1036C791.495 35.5741 794.513 38.8223 796.708 42.8483C798.903 46.7828 800.001 50.9003 800.001 55.2008V95.5091H784.91ZM739.775 95.5091V30.1312H754.866V95.5091H739.775Z" fill="black"/>
<path d="M599.248 95.5091V10.1891H614.304V95.5091H599.248Z" fill="black"/>
<path d="M639.398 95.5091V30.2644H654.454V95.5091H639.398Z" fill="black"/>
<path d="M639.398 25.2456V10.1891H654.454V25.2456H639.398Z" fill="black"/>
<path d="M584.191 30.2644L629.36 30.2644L629.36 45.3208L584.191 45.3208L584.191 30.2644Z" fill="black"/>
<path d="M246.926 95.5091V29.6396H262.167V95.5091H246.926ZM262.167 59.0936L256.902 56.4662C256.902 48.0772 258.75 41.3014 262.444 36.1389C266.232 30.8842 271.912 28.2568 279.487 28.2568C282.812 28.2568 285.814 28.8561 288.493 30.0545C291.172 31.2529 293.666 33.1889 295.975 35.8623L285.999 46.0951C284.798 44.8045 283.459 43.8826 281.981 43.3295C280.503 42.7764 278.794 42.4998 276.854 42.4998C272.605 42.4998 269.095 43.8365 266.324 46.51C263.553 49.1834 262.167 53.378 262.167 59.0936Z" fill="black"/>
<path d="M528.984 95.5091V29.6396H544.225V95.5091H528.984ZM544.225 59.0936L538.96 56.4662C538.96 48.0772 540.808 41.3014 544.503 36.1389C548.29 30.8842 553.971 28.2568 561.545 28.2568C564.87 28.2568 567.872 28.8561 570.551 30.0545C573.23 31.2529 575.724 33.1889 578.033 35.8623L568.057 46.0951C566.856 44.8045 565.517 43.8826 564.039 43.3295C562.561 42.7764 560.852 42.4998 558.912 42.4998C554.663 42.4998 551.153 43.8365 548.382 46.51C545.611 49.1834 544.225 53.378 544.225 59.0936Z" fill="black"/>
<path d="M185.632 110.566H170.64L170.705 65.3961H185.697L185.632 110.566Z" fill="black"/>
<path d="M236.382 65.4067C235.161 81.4698 222.336 94.2891 206.271 95.5024L206.278 80.3246C213.998 79.2261 220.105 73.1221 221.207 65.4028L236.382 65.4067ZM186.342 65.393C187.44 73.1153 193.547 79.2238 201.268 80.3246L201.261 95.4975C199.51 95.3638 197.797 95.0959 196.133 94.6977C195.79 94.6156 195.449 94.5279 195.11 94.435C194.403 94.2412 193.705 94.0248 193.018 93.7856C192.698 93.6742 192.38 93.5579 192.065 93.437C180.527 89.0107 172.135 78.2363 171.165 65.3891L186.342 65.393ZM203.773 30.1889C220.995 30.1891 235.108 43.501 236.383 60.3969L221.208 60.393C219.994 51.8514 212.652 45.2837 203.775 45.2836C194.902 45.2839 187.561 51.8466 186.343 60.3832L171.165 60.3793C172.161 47.2704 180.887 36.3229 192.794 32.0795C193.385 31.869 193.984 31.6745 194.59 31.4975C195.026 31.3703 195.466 31.2524 195.909 31.143C196.236 31.0622 196.566 30.9854 196.897 30.9145C198.352 30.603 199.844 30.3885 201.364 30.2778C201.861 30.2415 202.362 30.2153 202.866 30.2016C203.167 30.1934 203.47 30.1889 203.773 30.1889Z" fill="black"/>
<path d="M185.632 60.3773H170.64L170.705 30.2644H185.697L185.632 60.3773Z" fill="black"/>
<path d="M392.407 110.566H377.416L377.48 65.3961H392.472L392.407 110.566Z" fill="black"/>
<path d="M392.407 60.3773H377.416L377.48 30.2644H392.472L392.407 60.3773Z" fill="black"/>
<path d="M442.67 65.4067C442.27 70.6674 440.627 75.5808 438.032 79.852C437.895 80.0766 437.756 80.2999 437.615 80.5209C436.622 82.069 435.503 83.5282 434.271 84.8832C433.919 85.2704 433.558 85.6492 433.188 86.019C430.969 88.2384 428.431 90.1404 425.651 91.6508C425.188 91.9025 424.717 92.1429 424.241 92.3725C424.002 92.4873 423.762 92.5993 423.521 92.7084C420.135 94.2393 416.442 95.2081 412.559 95.5014L412.566 80.3246C420.287 79.2264 426.393 73.1223 427.495 65.4028L442.67 65.4067ZM392.631 65.393C393.729 73.1151 399.835 79.2236 407.556 80.3246L407.549 95.5004C401.181 95.0164 395.322 92.7105 390.495 89.1C390.285 88.9433 390.077 88.7841 389.872 88.6225C388.224 87.328 386.704 85.8785 385.333 84.2963C384.819 83.7027 384.326 83.0902 383.855 82.4604C383.541 82.0407 383.237 81.6131 382.943 81.1782C381.914 79.6559 381.011 78.0421 380.247 76.352C380.138 76.1108 380.032 75.8677 379.928 75.6235C379.515 74.6454 379.147 73.6426 378.829 72.6186C378.11 70.3083 377.641 67.8876 377.453 65.3891L392.631 65.393ZM410.062 30.1889C410.626 30.1889 411.187 30.2036 411.745 30.2319C412.302 30.2601 412.856 30.302 413.406 30.3578C414.505 30.4695 415.588 30.6352 416.653 30.853C417.451 31.0163 418.239 31.2087 419.015 31.4291C422.637 32.4577 426.002 34.0952 428.995 36.2231C429.636 36.679 430.26 37.1569 430.866 37.6567C437.533 43.1593 441.98 51.2535 442.67 60.3969L427.497 60.393C426.283 51.8514 418.941 45.2836 410.064 45.2836C401.19 45.2837 393.851 51.8464 392.632 60.3832L377.456 60.3793C377.547 59.1798 377.702 57.9983 377.919 56.8383C378.153 55.5884 378.457 54.3629 378.829 53.1674C378.908 52.9116 378.991 52.6568 379.077 52.4037C379.162 52.1509 379.251 51.8989 379.342 51.6489C379.617 50.8975 379.919 50.1585 380.247 49.434C380.356 49.1925 380.469 48.9526 380.583 48.7143C381.617 46.5698 382.877 44.5548 384.333 42.7016C384.657 42.2899 384.991 41.8861 385.333 41.4907C385.676 41.0952 386.028 40.708 386.389 40.3295C386.75 39.951 387.12 39.581 387.499 39.2202C393.367 33.6248 401.313 30.189 410.062 30.1889Z" fill="black"/>
<path d="M332.091 45.4127C323.549 46.6258 316.979 53.968 316.979 62.8453C316.979 71.7195 323.544 79.0594 332.082 80.277L332.078 95.4528C317.681 94.3591 305.888 83.9463 302.722 70.2311C302.661 69.9675 302.604 69.7022 302.549 69.4362C302.332 68.3718 302.165 67.2883 302.053 66.1891L301.98 65.3619C301.938 64.8082 301.909 64.2502 301.895 63.6891C301.888 63.4089 301.885 63.1272 301.885 62.8453C301.886 45.6227 315.199 31.5102 332.095 30.236L332.091 45.4127ZM367.292 62.8453C367.292 75.8274 359.728 87.0428 348.767 92.3248C346.622 93.3582 344.348 94.1647 341.974 94.7125C340.583 95.0336 339.159 95.2646 337.707 95.402C337.501 95.4214 337.294 95.437 337.087 95.4528L337.091 80.278C345.632 79.0629 352.199 71.7215 352.199 62.8453C352.198 53.9728 345.637 46.6337 337.101 45.4147L337.106 30.2369C337.382 30.258 337.658 30.2823 337.932 30.3102C341.505 30.673 344.908 31.6108 348.047 33.0299C348.53 33.2482 349.007 33.4786 349.477 33.7194C360.054 39.1367 367.292 50.1457 367.292 62.8453Z" fill="black"/>
<path d="M483.036 45.4127C474.494 46.6262 467.926 53.9684 467.925 62.8453C467.925 71.7192 474.489 79.059 483.026 80.277L483.022 95.4537C481.083 95.3062 479.192 94.9908 477.363 94.5201C477.102 94.453 476.842 94.3826 476.583 94.3092C475.807 94.0888 475.043 93.8402 474.292 93.5651C473.54 93.29 472.802 92.9882 472.078 92.6608C471.836 92.5516 471.596 92.4396 471.358 92.3248C470.987 92.1462 470.621 91.9593 470.258 91.7672C468.755 90.9716 467.321 90.0639 465.968 89.0524C465.549 88.7385 465.137 88.4148 464.733 88.0817C463.32 86.9153 462.006 85.6322 460.807 84.2477C460.636 84.0501 460.467 83.8507 460.3 83.649C456.801 79.4089 454.349 74.2718 453.342 68.6344C453.151 67.5609 453.011 66.4689 452.927 65.3619C452.886 64.8188 452.859 64.2715 452.844 63.7213C452.837 63.4304 452.832 63.1381 452.832 62.8453C452.832 62.5634 452.835 62.2818 452.842 62.0016C453.148 49.9397 459.985 39.5007 469.948 34.0885C470.179 33.9627 470.413 33.8397 470.648 33.7194C471.118 33.4786 471.595 33.2482 472.078 33.0299C472.92 32.6489 473.783 32.3046 474.663 31.9947C475.294 31.7722 475.934 31.5657 476.583 31.3815C476.841 31.308 477.102 31.2377 477.363 31.1705C478.93 30.7672 480.544 30.4776 482.193 30.3102C482.474 30.2816 482.756 30.2575 483.04 30.236L483.036 45.4127ZM518.241 62.8453C518.241 63.6919 518.208 64.5316 518.145 65.3619C518.061 66.4689 517.922 67.561 517.73 68.6344C517.682 68.9027 517.63 69.1702 517.576 69.4362C517.249 71.0328 516.807 72.5878 516.256 74.0905C516.073 74.591 515.877 75.0861 515.67 75.5748C515.567 75.8194 515.46 76.0628 515.351 76.3043C514.805 77.5117 514.188 78.6805 513.505 79.8043C513.369 80.0286 513.23 80.2516 513.088 80.4723C512.663 81.1357 512.214 81.7832 511.744 82.4127C511.43 82.8323 511.106 83.2444 510.773 83.6481C510.606 83.85 510.436 84.0499 510.265 84.2477C509.922 84.6433 509.57 85.0311 509.209 85.4098C503.79 91.0938 496.345 94.8283 488.032 95.4557L488.036 80.2789C496.577 79.0643 503.145 71.7219 503.145 62.8453C503.145 53.9725 496.582 46.6333 488.045 45.4147L488.049 30.236L488.052 30.2369C488.329 30.258 488.605 30.2822 488.88 30.3102C489.98 30.4218 491.063 30.5875 492.127 30.8053C495.055 31.4044 497.84 32.395 500.425 33.7194C501.365 34.2008 502.279 34.7265 503.164 35.2936C506.039 37.1368 508.606 39.4181 510.772 42.0426C511.105 42.4464 511.43 42.8582 511.744 43.278C513.156 45.1665 514.369 47.2135 515.351 49.3864C515.569 49.8694 515.777 50.3589 515.972 50.8541C517.436 54.5669 518.241 58.6124 518.241 62.8453Z" fill="black"/>
<path d="M694.355 45.4137C685.815 46.6283 679.247 53.9692 679.247 62.8454C679.247 71.7184 685.81 79.057 694.346 80.276L694.342 95.4528C691.02 95.2 687.836 94.4532 684.865 93.2819C683.38 92.6962 681.948 92.005 680.578 91.2174C680.122 90.9549 679.672 90.6816 679.229 90.3981C678.694 90.0547 678.171 89.6931 677.657 89.32C677.322 89.0768 676.99 88.8303 676.665 88.5749C676.047 88.0895 675.448 87.582 674.867 87.0543C673.899 86.1746 672.985 85.2367 672.128 84.2477C671.443 83.4567 670.794 82.6327 670.187 81.778C670.035 81.5642 669.885 81.348 669.738 81.1305C667.975 78.5208 666.579 75.643 665.623 72.571C665.543 72.3149 665.467 72.0572 665.394 71.7985C664.806 69.7293 664.417 67.5764 664.248 65.362C664.227 65.085 664.209 64.8068 664.195 64.528C664.167 63.9708 664.152 63.4096 664.152 62.8454C664.152 62.2811 664.167 61.72 664.195 61.1627C664.209 60.8839 664.227 60.6057 664.248 60.3288C664.438 57.8374 664.906 55.4239 665.623 53.1198C665.942 52.0957 666.309 51.0931 666.723 50.1149C668.274 46.4468 670.476 43.1206 673.184 40.2809C673.725 39.7132 674.287 39.165 674.867 38.6374C676.222 37.4057 677.681 36.2862 679.229 35.2936C679.672 35.01 680.122 34.7368 680.578 34.4743C681.719 33.818 682.904 33.2287 684.127 32.7116C685.179 32.2665 686.26 31.8763 687.365 31.5417C689.599 30.8653 691.933 30.4201 694.341 30.237C694.347 30.2365 694.353 30.2365 694.359 30.236L694.355 45.4137ZM729.561 62.8454C729.561 80.0681 716.248 94.182 699.352 95.4567L699.355 80.278C707.898 79.0644 714.467 71.7227 714.467 62.8454C714.467 53.9716 707.903 46.6323 699.365 45.4147L699.369 30.236C699.37 30.2361 699.372 30.2369 699.373 30.237C700.48 30.3212 701.572 30.4603 702.646 30.652C703.988 30.8918 705.302 31.2138 706.582 31.612C707.094 31.7712 707.601 31.9423 708.102 32.1256C720.624 36.7108 729.56 48.7346 729.561 62.8454Z" fill="black"/>
<path d="M20.7007 120.755H0V65.5525H20.7007L20.7007 120.755Z" fill="black"/>
<path d="M120.533 65.5515C118.052 94.7838 94.7454 118.078 65.5074 120.538L65.5231 99.7217C83.3122 97.4171 97.4034 83.3312 99.7168 65.5446L120.533 65.5515Z" fill="black"/>
<path d="M60.3768 0C91.9933 0 117.932 24.3021 120.537 55.2453L99.7207 55.2384C97.2004 35.7536 80.5467 20.7008 60.3758 20.7007C40.215 20.7007 23.5671 35.7384 21.034 55.209L0.219573 55.2021C2.84488 24.2796 28.7751 0.000119648 60.3768 0Z" fill="black"/>
<path d="M21.0302 65.5152C23.3313 83.3118 37.4235 97.4092 55.217 99.7197L55.2013 120.534C25.9701 118.052 2.67628 94.7458 0.21582 65.5084L21.0302 65.5152Z" fill="#00C3F0"/>
</svg>
